<!DOCTYPE svg PUBLIC "-//W3C//DTD SVG 20010904//EN" "http://www.w3.org/TR/2001/REC-SVG-20010904/DTD/svg10.dtd">
<svg version="1.0" xmlns="http://www.w3.org/2000/svg" width="600px" height="618px" viewBox="0 0 6000 6180" preserveAspectRatio="xMidYMid meet">
    <g id="layer101" fill="#000000" stroke="none">
        <path d="M1687 5970 c-21 -4 -43 -12 -48 -17 -13 -13 -7 -148 6 -148 5 0 12 14 15 30 10 48 27 71 60 85 69 29 149 -24 135 -89 -7 -34 -39 -70 -124 -140 -118 -98 -121 -228 -6 -289 32 -16 131 -22 178 -9 26 7 27 10 27 67 0 58 -15 88 -26 53 -19 -60 -48 -83 -104 -83 -55 0 -87 59 -60 110 6 11 41 44 79 74 38 31 79 69 91 87 75 105 25 241 -98 268 -58 12 -69 12 -125 1z"/>
        <path d="M2270 5953 c0 -7 9 -13 20 -13 35 0 40 -31 40 -264 l0 -226 -75 0 c-76 0 -103 12 -117 51 -11 30 -20 -2 -13 -48 9 -71 12 -73 69 -61 27 6 132 9 242 7 l194 -4 0 58 c0 44 -3 57 -15 57 -8 0 -15 -9 -15 -20 0 -28 -30 -40 -104 -40 l-66 0 1 218 c1 119 4 228 8 242 5 19 14 26 39 28 18 2 32 9 32 15 0 9 -33 12 -120 12 -89 0 -120 -3 -120 -12z"/>
        <path d="M2705 5961 c-12 -11 -3 -21 20 -21 13 0 32 -9 42 -20 10 -10 65 -137 122 -280 79 -200 107 -260 119 -258 10 2 43 72 94 198 140 351 145 360 194 360 16 0 24 5 21 13 -3 9 -31 11 -102 10 -98 -3 -120 -7 -97 -22 10 -6 5 -27 -19 -89 l-31 -82 -82 0 -82 0 -27 76 c-28 80 -28 94 4 94 10 0 19 6 19 13 0 9 -26 12 -95 12 -53 1 -98 -1 -100 -4z m319 -313 c-14 -40 -29 -77 -34 -81 -6 -7 -60 124 -60 146 0 4 27 7 60 7 l60 0 -26 -72z"/>
        <path d="M3520 5953 c0 -7 9 -13 20 -13 35 0 40 -31 40 -264 l0 -226 -69 0 c-83 0 -100 5 -112 36 -16 44 -32 28 -25 -26 10 -76 13 -80 49 -72 18 4 128 7 245 7 l212 0 0 58 c0 59 -14 75 -29 33 -12 -30 -29 -36 -107 -36 l-64 0 1 213 c2 260 3 270 47 277 18 3 33 9 32 15 0 15 -240 13 -240 -2z"/>
        <path d="M4104 5961 c-11 -11 -2 -21 20 -21 13 0 27 -7 30 -16 3 -9 6 -123 6 -254 0 -256 1 -250 -52 -250 -11 0 -18 -5 -16 -11 3 -8 59 -12 186 -13 148 -1 181 2 177 12 -3 8 -5 34 -5 58 0 32 -4 44 -15 44 -8 0 -15 -8 -15 -19 0 -28 -19 -38 -87 -45 l-63 -7 0 101 0 100 58 0 c31 0 70 -7 85 -15 l28 -14 -3 66 c-2 42 -8 68 -15 71 -8 2 -13 -5 -13 -16 0 -29 -18 -39 -83 -47 l-58 -7 3 113 3 114 38 9 c58 15 109 -2 127 -41 21 -45 30 -41 30 13 0 86 3 85 -191 82 -94 -2 -172 -5 -175 -7z"/>
        <path d="M242 5179 l-33 -10 3 -71 c3 -76 21 -102 32 -46 9 49 32 76 73 87 64 18 124 -22 123 -81 -1 -38 -22 -66 -100 -131 -87 -74 -110 -112 -110 -184 0 -99 77 -151 208 -140 35 3 68 9 72 13 11 11 0 124 -11 124 -5 0 -9 -6 -9 -14 0 -23 -47 -73 -75 -80 -33 -8 -91 17 -100 44 -13 41 5 69 90 140 97 81 125 126 125 198 0 97 -79 163 -195 161 -33 0 -75 -5 -93 -10z"/>
        <path d="M1296 5174 c-139 -43 -209 -139 -209 -284 0 -122 58 -217 162 -263 58 -25 193 -34 290 -17 l73 12 -6 37 c-3 20 -6 55 -6 79 0 23 -4 42 -8 42 -4 0 -14 -19 -22 -42 -20 -58 -78 -88 -168 -88 -121 0 -189 66 -200 195 -9 117 35 209 125 262 39 23 60 28 113 28 78 0 114 -19 136 -71 23 -54 37 -43 29 23 -9 77 -12 81 -53 93 -54 14 -199 11 -256 -6z"/>
        <path d="M4370 4985 l-203 -205 7 169 c3 94 9 177 12 186 4 9 19 19 35 22 61 12 25 23 -76 23 -101 0 -137 -11 -76 -23 39 -8 41 -24 41 -309 0 -190 3 -240 13 -244 12 -4 206 186 375 366 l51 55 -5 -170 c-7 -216 -6 -213 -49 -221 -68 -12 -34 -24 70 -24 63 0 105 4 105 10 0 6 -6 10 -14 10 -34 0 -46 30 -46 114 0 203 -13 446 -25 446 -6 0 -103 -92 -215 -205z"/>
        <path d="M5466 5174 c-71 -23 -146 -101 -170 -178 -35 -111 -5 -246 71 -318 56 -53 118 -73 228 -73 114 1 167 18 224 76 51 50 73 109 74 193 1 132 -50 224 -154 281 -46 24 -67 29 -139 32 -57 2 -101 -2 -134 -13z m250 -75 c104 -101 78 -342 -45 -421 -59 -37 -141 -39 -192 -5 -133 90 -107 369 41 445 36 19 57 23 103 20 49 -4 62 -9 93 -39z"/>
        <path d="M510 5171 c0 -5 14 -12 30 -16 38 -8 40 -14 159 -310 107 -269 105 -266 124 -245 8 8 56 120 107 248 51 128 102 247 114 265 12 18 35 36 54 42 58 17 34 25 -73 25 -94 0 -123 -7 -96 -24 5 -3 -5 -42 -22 -86 l-30 -81 -85 3 -85 3 -25 67 c-26 72 -24 98 8 98 11 0 20 5 20 10 0 6 -40 10 -100 10 -55 0 -100 -4 -100 -9z m319 -313 c-17 -46 -32 -84 -33 -86 -2 -1 -15 28 -29 65 -14 37 -28 76 -32 86 -6 15 0 17 58 17 l66 0 -30 -82z"/>
        <path d="M1690 5171 c0 -5 13 -11 29 -14 22 -5 30 -13 35 -38 8 -40 8 -442 0 -463 -3 -8 -21 -18 -40 -22 -19 -3 -34 -11 -34 -16 0 -6 61 -8 163 -6 180 4 214 13 242 68 18 34 20 112 4 143 -6 12 -27 38 -45 57 l-34 36 64 79 c78 98 131 149 144 141 5 -3 56 -122 112 -263 57 -142 109 -265 117 -273 19 -21 16 -26 134 268 106 264 123 292 178 292 52 0 53 -5 97 -290 22 -149 44 -273 48 -277 13 -13 32 20 131 224 l100 206 104 -216 c58 -120 108 -217 112 -217 15 0 20 23 55 267 20 136 42 258 50 270 7 12 27 24 44 28 63 14 28 26 -67 23 l-98 -3 3 -30 c4 -35 -28 -296 -38 -308 -4 -4 -45 71 -91 168 -46 96 -89 175 -97 175 -7 0 -52 -80 -101 -179 l-88 -179 -17 137 c-23 188 -22 190 14 198 75 14 15 23 -165 23 -112 0 -195 -4 -195 -9 0 -5 5 -11 12 -13 7 -3 1 -30 -20 -84 l-30 -79 -85 -3 -85 -3 -27 75 c-28 77 -27 96 6 96 10 0 19 5 19 10 0 6 -44 10 -112 10 -138 0 -148 -6 -244 -137 -63 -85 -71 -93 -102 -93 l-33 0 3 98 3 97 33 10 c60 17 33 25 -88 25 -66 0 -120 -4 -120 -9z m805 -248 c-4 -10 -15 -42 -25 -70 -31 -89 -32 -89 -66 3 l-32 84 65 0 c58 0 64 -2 58 -17z m-512 -54 c26 -36 26 -116 0 -161 -20 -34 -71 -59 -105 -50 -16 4 -18 17 -18 124 l0 119 51 -3 c43 -2 56 -8 72 -29z"/>
        <path d="M3580 5171 c0 -5 11 -12 25 -15 14 -4 27 -16 30 -29 3 -12 4 -125 3 -252 l-3 -230 -32 -10 c-18 -5 -33 -13 -33 -17 0 -4 74 -8 164 -8 90 0 171 -3 180 -6 13 -5 16 2 16 44 0 79 -21 113 -33 53 -5 -24 -13 -31 -40 -36 -18 -4 -51 -5 -72 -3 l-40 3 -3 93 -3 92 75 0 c41 0 78 -4 81 -10 12 -19 25 -10 25 18 0 43 -12 102 -20 102 -4 0 -11 -11 -14 -25 -7 -29 -33 -38 -97 -33 l-44 3 0 96 c0 119 7 129 82 129 65 0 89 -11 97 -45 4 -14 11 -25 16 -25 11 0 13 42 4 89 l-6 31 -179 0 c-99 0 -179 -4 -179 -9z"/>
        <path d="M4860 5170 c0 -5 8 -10 19 -10 42 0 46 -21 49 -267 l4 -233 -54 0 c-72 0 -125 16 -133 40 -4 11 -11 20 -16 20 -10 0 -11 -29 -3 -80 l6 -35 246 3 247 2 0 57 c0 36 -4 58 -12 61 -8 2 -13 -5 -13 -16 0 -31 -23 -43 -99 -49 l-71 -6 0 231 c0 127 3 237 6 246 3 8 21 18 40 22 71 13 30 24 -91 24 -77 0 -125 -4 -125 -10z"/>
        <path d="M2407 4190 c-261 -24 -490 -97 -657 -210 -57 -39 -100 -80 -83 -80 5 0 33 11 61 25 252 121 789 161 1187 89 44 -9 202 -44 350 -79 149 -35 304 -69 345 -76 112 -20 366 -18 470 4 129 28 240 62 240 75 0 4 -87 7 -193 8 -232 1 -318 15 -681 110 -268 69 -443 107 -571 123 -123 15 -359 20 -468 11z"/>
        <path d="M2302 3938 c-175 -22 -390 -92 -519 -170 -62 -37 -133 -95 -133 -108 0 -5 33 7 74 25 85 40 216 76 371 101 87 15 162 19 365 18 302 0 366 -9 786 -109 345 -83 457 -99 634 -92 139 6 300 36 390 73 l45 19 -200 6 c-235 7 -320 20 -615 96 -509 132 -642 154 -933 152 -106 -1 -225 -6 -265 -11z"/>
        <path d="M2256 3669 c-141 -15 -459 -88 -517 -120 -18 -9 -19 -53 -19 -1474 l0 -1465 73 -54 c242 -181 549 -319 847 -380 332 -68 697 -38 1030 84 182 66 452 214 577 317 l43 35 0 1465 0 1465 -22 -6 c-160 -47 -221 -58 -353 -63 -161 -6 -196 -1 -628 83 -158 31 -290 54 -293 51 -6 -6 82 -455 97 -493 5 -16 19 -23 51 -28 l44 -7 16 -65 16 -66 -24 6 c-70 18 -231 26 -321 16 -54 -5 -108 -13 -120 -16 l-22 -6 21 65 c22 65 22 65 67 74 l46 8 47 259 c27 143 46 261 44 264 -7 6 -211 39 -318 51 -110 12 -265 12 -382 0z m884 -884 c66 -27 126 -71 155 -112 13 -20 64 -78 112 -128 168 -174 237 -344 213 -526 -26 -206 -111 -356 -308 -543 -243 -231 -337 -330 -369 -391 -60 -115 -66 -237 -19 -341 38 -82 108 -123 215 -125 47 -1 51 -3 26 -9 -55 -14 -143 -10 -204 9 -79 25 -145 68 -213 139 -30 31 -74 70 -97 86 -23 16 -70 59 -105 97 -168 178 -199 405 -86 634 59 119 124 198 345 425 272 278 327 365 329 520 1 65 -3 82 -28 128 -43 77 -93 104 -189 104 -71 -1 -184 -29 -214 -54 -9 -7 -13 -7 -13 0 0 15 102 82 151 98 61 20 238 13 299 -11z m-173 -130 c28 -8 56 -22 63 -30 10 -12 7 -15 -17 -20 -90 -20 -130 -61 -231 -232 -39 -66 -87 -140 -108 -164 -80 -96 -172 -137 -280 -123 l-58 7 37 18 c50 26 74 62 156 231 99 204 169 279 292 312 70 19 85 19 146 1z"/>
        <path d="M3360 2569 c0 -2 7 -26 15 -53 19 -61 19 -175 1 -241 -35 -133 -130 -262 -317 -435 -219 -202 -365 -353 -411 -425 -71 -111 -92 -174 -92 -285 -1 -83 3 -102 26 -153 29 -62 67 -121 74 -114 3 2 0 36 -6 75 -14 87 -2 160 40 251 52 110 116 188 365 441 261 267 319 336 374 450 32 66 36 86 39 167 4 99 -11 170 -53 253 -19 38 -55 83 -55 69z"/>
    </g>
</svg>
